<?xml version="1.0" standalone="no"?>
<!DOCTYPE svg PUBLIC "-//W3C//DTD SVG 20010904//EN"
 "http://www.w3.org/TR/2001/REC-SVG-20010904/DTD/svg10.dtd">
<svg version="1.0" xmlns="http://www.w3.org/2000/svg"
 width="1072.000000pt" height="1072.000000pt" viewBox="0 0 1072.000000 1072.000000"
 preserveAspectRatio="xMidYMid meet">
<metadata>
Created by potrace 1.14, written by Peter Selinger 2001-2017
</metadata>
<g transform="translate(0.000000,1072.000000) scale(0.100000,-0.100000)"
fill="#000000" stroke="none">
<path d="M7448 9295 c-2 -2 -64 -6 -138 -9 -137 -6 -201 -12 -255 -21 -16 -2
-55 -7 -85 -11 -30 -3 -58 -8 -62 -10 -4 -3 -31 -7 -60 -10 -29 -3 -57 -8 -61
-11 -5 -3 -23 -7 -40 -10 -18 -3 -37 -9 -43 -14 -6 -5 -13 -7 -15 -4 -3 2 -23
-1 -45 -7 -21 -6 -42 -13 -46 -14 -5 -1 -9 -2 -10 -4 -2 -1 -10 -3 -19 -5 -56
-11 -63 -22 -74 -115 -3 -22 -18 -113 -21 -125 -4 -16 -13 -67 -19 -109 -4
-21 -9 -48 -11 -60 -5 -24 -33 -186 -40 -231 -7 -45 -23 -137 -29 -165 -3 -14
-8 -43 -10 -65 -5 -37 -7 -52 -20 -115 -5 -28 -15 -83 -20 -120 -3 -14 -7 -36
-10 -50 -3 -14 -7 -38 -10 -55 -2 -16 -7 -41 -9 -55 -3 -14 -8 -41 -10 -60 -3
-19 -8 -48 -11 -65 -3 -16 -7 -41 -9 -55 -3 -14 -5 -25 -7 -25 -1 0 -3 -13 -4
-30 -1 -16 -6 -46 -10 -65 -4 -19 -9 -46 -10 -60 -2 -14 -10 -63 -19 -110 -8
-47 -17 -102 -21 -124 -3 -21 -7 -41 -9 -45 -3 -4 -7 -27 -10 -51 -3 -25 -8
-56 -11 -70 -3 -14 -8 -41 -11 -60 -3 -19 -7 -46 -9 -60 -3 -14 -7 -42 -10
-64 -4 -21 -9 -48 -11 -60 -4 -22 -51 -289 -59 -341 -3 -16 -8 -43 -12 -60 -3
-16 -7 -41 -9 -55 -1 -14 -5 -37 -8 -51 -3 -14 -8 -41 -10 -60 -3 -19 -5 -34
-6 -34 -1 0 -3 -11 -4 -25 -2 -14 -6 -39 -10 -55 -4 -17 -10 -46 -12 -65 -2
-19 -9 -59 -15 -89 -6 -30 -12 -64 -14 -75 -1 -12 -5 -34 -8 -51 -3 -16 -9
-48 -12 -70 -9 -62 -16 -106 -21 -129 -8 -35 -12 -59 -18 -101 -4 -22 -10 -62
-16 -90 -5 -27 -12 -66 -14 -85 -3 -19 -12 -69 -20 -110 -8 -41 -13 -78 -10
-81 2 -4 0 -10 -5 -13 -5 -4 -8 -14 -6 -24 1 -9 -1 -27 -6 -39 -7 -18 -3 -26
21 -43 17 -12 30 -18 30 -14 0 4 9 -1 19 -10 11 -10 25 -19 33 -20 7 -1 36
-12 63 -25 78 -36 120 -55 125 -56 3 -1 19 -7 35 -14 17 -7 59 -24 95 -37 36
-14 74 -30 85 -35 12 -6 27 -11 35 -13 8 -2 22 -6 30 -9 8 -3 58 -20 110 -37
52 -18 104 -36 115 -40 11 -5 49 -17 85 -28 36 -10 90 -27 120 -36 30 -9 60
-17 65 -18 6 0 34 -9 63 -19 28 -10 52 -15 52 -12 0 3 6 1 13 -5 10 -8 35 -16
87 -27 11 -2 130 -38 200 -59 250 -78 346 -110 354 -117 6 -5 18 -9 28 -9 10
0 37 -8 61 -19 23 -10 80 -33 127 -52 166 -65 278 -134 341 -209 19 -23 39
-47 44 -54 13 -15 49 -80 48 -86 0 -3 3 -14 8 -25 23 -61 24 -62 38 -155 13
-82 6 -246 -14 -325 -20 -79 -63 -176 -107 -241 -36 -54 -129 -150 -178 -184
-19 -13 -37 -27 -40 -31 -5 -6 -150 -81 -195 -100 -38 -17 -165 -58 -165 -54
0 3 -12 0 -27 -6 -14 -5 -45 -12 -69 -15 -23 -3 -53 -7 -65 -10 -111 -24 -483
-23 -664 2 -22 3 -50 7 -63 8 -12 1 -25 6 -29 9 -3 4 -18 7 -31 7 -14 0 -39 4
-56 9 -104 31 -208 67 -254 87 -28 13 -53 23 -55 21 -1 -1 -16 8 -34 21 -17
12 -34 22 -38 22 -13 0 -164 108 -158 114 4 3 1 6 -5 6 -11 0 -162 144 -162
154 0 3 -19 32 -42 63 -24 32 -49 67 -56 78 -28 45 -101 204 -122 265 -12 36
-25 72 -28 80 -3 8 -6 21 -8 29 -1 8 -6 26 -10 40 -4 14 -8 29 -9 34 -2 4 -3
16 -4 27 0 11 -5 20 -11 20 -10 0 -24 -48 -36 -125 -4 -27 -8 -54 -10 -60 -1
-5 -4 -26 -8 -45 -3 -19 -7 -44 -10 -55 -2 -11 -9 -52 -16 -92 -14 -89 -18
-108 -20 -108 -2 0 -4 -15 -16 -90 -4 -27 -9 -57 -10 -65 -2 -8 -6 -28 -8 -45
-3 -16 -7 -39 -9 -50 -3 -11 -8 -40 -12 -65 -4 -25 -9 -54 -12 -65 -6 -26 -11
-60 -18 -110 -3 -22 -8 -47 -11 -55 -3 -8 -8 -31 -10 -50 -3 -19 -7 -46 -10
-60 -3 -14 -7 -38 -9 -55 -3 -16 -7 -41 -10 -55 -9 -41 -14 -72 -21 -115 -3
-22 -9 -58 -14 -80 -5 -22 -11 -58 -14 -80 -4 -23 -8 -50 -10 -60 -15 -80 -21
-111 -22 -120 -1 -5 -3 -12 -4 -15 -1 -3 -4 -16 -5 -30 -1 -14 -5 -38 -9 -55
-3 -16 -9 -50 -12 -75 -3 -25 -8 -48 -10 -52 -5 -7 -17 -82 -18 -111 -1 -10
12 -25 29 -35 17 -9 32 -20 33 -24 2 -5 12 -8 22 -8 9 0 23 -7 30 -15 7 -8 19
-15 28 -15 8 0 23 -7 32 -15 10 -9 26 -17 36 -19 11 -3 46 -16 79 -31 96 -42
237 -96 248 -94 1 0 16 -5 32 -11 17 -7 37 -13 45 -15 8 -2 35 -10 60 -18 25
-8 61 -18 80 -22 19 -3 46 -10 60 -14 31 -10 113 -29 160 -36 19 -3 42 -8 50
-10 8 -3 35 -7 60 -11 25 -3 54 -8 65 -9 66 -11 148 -20 255 -30 36 -3 87 -8
114 -11 62 -7 522 -7 601 0 33 3 98 8 145 11 47 3 92 8 100 10 8 2 44 7 80 10
36 4 74 9 85 11 11 2 40 7 65 10 25 3 52 7 60 9 8 2 31 7 50 10 19 3 55 11 80
16 25 6 52 12 61 14 8 2 39 10 67 19 29 8 52 12 52 9 0 -3 6 -1 13 4 10 8 83
32 120 39 4 1 9 3 12 4 3 1 8 3 13 4 15 3 137 50 147 56 11 8 54 19 69 19 5
-1 12 3 15 8 3 5 26 17 51 28 25 11 48 24 52 30 4 5 8 7 8 3 0 -3 32 11 71 33
40 21 74 39 76 39 4 0 157 96 178 112 6 4 42 31 80 59 94 70 83 61 225 201 69
67 156 161 193 208 38 47 75 93 83 103 8 9 14 21 14 25 0 4 14 23 30 42 16 19
30 38 30 42 0 4 13 27 30 51 65 97 201 386 215 457 2 10 8 27 14 38 6 11 7 22
4 26 -3 3 0 6 7 6 7 0 11 2 8 5 -3 3 3 40 14 83 10 42 21 86 23 97 8 31 33
188 34 205 0 8 3 47 7 85 8 86 9 345 1 440 -11 131 -45 336 -64 385 -3 8 -7
22 -9 30 -4 19 -34 120 -41 140 -4 8 -7 17 -8 20 -7 19 -21 53 -44 105 -15 33
-34 75 -42 93 -7 17 -18 32 -22 32 -5 0 -6 4 -2 9 3 5 -1 15 -8 23 -11 11 -63
94 -77 123 -9 20 -85 130 -100 146 -8 9 -23 27 -33 40 -16 22 -153 162 -187
192 -8 7 -35 29 -60 48 -25 19 -47 37 -50 40 -3 3 -9 8 -15 10 -5 2 -42 25
-82 52 -39 26 -76 47 -82 47 -6 0 -11 5 -11 11 0 5 -4 7 -10 4 -5 -3 -10 -1
-10 4 0 6 -4 11 -9 11 -5 0 -69 29 -142 64 -213 101 -321 145 -514 210 -60 21
-119 42 -130 47 -11 5 -29 11 -40 12 -11 2 -27 7 -35 10 -17 6 -116 36 -205
61 -33 10 -82 24 -109 32 -26 8 -51 13 -54 10 -3 -3 -11 -1 -18 5 -7 5 -25 12
-41 15 -15 3 -36 7 -45 10 -9 3 -26 7 -38 9 -11 2 -35 9 -53 14 -18 6 -72 20
-122 31 -49 12 -97 24 -105 27 -8 3 -24 8 -35 10 -20 3 -146 40 -175 51 -8 3
-24 7 -35 9 -11 1 -29 7 -40 12 -24 12 -99 35 -103 32 -1 -1 -15 5 -31 13 -16
9 -31 12 -35 9 -3 -4 -6 -1 -6 5 0 7 -7 12 -16 12 -8 0 -49 15 -90 34 -41 19
-74 32 -74 28 0 -4 -5 1 -11 11 -6 9 -14 15 -20 12 -5 -4 -9 -1 -9 5 0 6 -4 9
-9 6 -4 -3 -19 3 -31 14 -13 11 -26 20 -29 20 -13 0 -109 98 -139 141 -29 43
-85 159 -77 159 2 0 -2 21 -9 48 -7 26 -12 64 -12 85 1 20 -2 37 -7 37 -4 0
-5 5 -2 10 4 6 8 40 10 76 3 36 6 68 9 73 3 4 8 22 11 40 14 83 104 229 195
319 36 34 68 62 71 62 4 0 14 6 21 13 31 28 206 117 231 117 7 0 18 5 25 12 7
7 12 9 12 5 0 -4 8 -3 18 2 11 6 30 12 43 15 13 2 47 9 74 16 83 19 162 25
315 24 182 0 239 -6 401 -39 94 -19 319 -108 319 -127 0 -4 9 -8 20 -8 11 0
20 -4 20 -9 0 -5 9 -13 21 -16 12 -4 29 -14 39 -23 10 -10 27 -24 39 -33 83
-62 261 -270 261 -304 0 -7 3 -15 8 -17 13 -6 85 -162 116 -254 l31 -91 145
32 c80 18 197 45 260 59 63 15 124 28 135 30 11 2 68 16 126 30 58 14 124 28
147 32 24 4 45 10 48 15 2 4 11 6 18 3 8 -3 17 0 21 5 3 6 10 9 14 7 4 -3 23
-1 42 3 96 24 267 63 289 67 14 3 43 10 65 15 77 19 124 29 160 36 63 11 66
17 46 76 -11 28 -29 77 -41 107 -12 30 -23 60 -25 65 -1 6 -8 24 -15 40 -7 17
-14 32 -14 35 -1 3 -4 10 -7 15 -4 6 -12 27 -18 48 -7 20 -17 37 -23 37 -6 0
-9 3 -6 6 9 9 -146 311 -171 334 -4 3 -12 16 -19 30 -12 24 -150 220 -161 230
-3 3 -31 34 -61 70 -93 110 -318 326 -354 339 -6 2 -16 9 -23 15 -87 77 -290
196 -473 278 -57 25 -108 44 -112 42 -4 -3 -8 -1 -8 4 0 7 -54 29 -90 37 -3 0
-41 13 -85 27 -69 22 -102 32 -150 44 -19 4 -65 14 -92 19 -16 3 -46 9 -68 15
-22 5 -56 12 -75 15 -19 3 -66 10 -105 15 -155 24 -230 29 -450 36 -88 2 -170
6 -182 8 -13 2 -24 2 -25 1z"/>
<path d="M3894 9132 c-41 -3 -42 -3 -48 -50 -12 -83 -17 -116 -26 -167 -6 -27
-12 -66 -14 -85 -3 -19 -8 -48 -11 -65 -4 -16 -8 -43 -10 -60 -2 -16 -6 -40
-9 -51 -2 -12 -7 -39 -10 -60 -14 -91 -24 -149 -36 -214 -5 -30 -12 -73 -15
-95 -4 -22 -8 -47 -10 -55 -2 -8 -7 -33 -10 -55 -3 -23 -8 -52 -10 -65 -3 -14
-7 -43 -10 -65 -7 -47 -13 -80 -15 -80 -1 0 -3 -16 -6 -35 -2 -19 -14 -89 -25
-155 -11 -66 -22 -133 -25 -150 -3 -16 -7 -37 -9 -45 -2 -8 -7 -40 -10 -70 -4
-30 -8 -57 -10 -60 -2 -3 -6 -25 -9 -50 -3 -25 -8 -54 -10 -65 -2 -11 -7 -40
-11 -65 -4 -25 -9 -54 -11 -65 -3 -11 -7 -36 -10 -55 -3 -19 -9 -60 -15 -90
-14 -80 -17 -101 -23 -140 -3 -19 -8 -46 -10 -60 -3 -14 -7 -41 -10 -60 -3
-19 -8 -46 -11 -60 -2 -14 -7 -41 -9 -60 -3 -19 -7 -44 -9 -55 -3 -11 -8 -42
-11 -70 -4 -27 -9 -57 -11 -65 -3 -8 -7 -31 -9 -50 -7 -49 -15 -91 -33 -190
-8 -47 -17 -96 -18 -110 -3 -26 -13 -85 -22 -135 -5 -30 -7 -39 -18 -110 -3
-22 -10 -62 -15 -90 -8 -46 -13 -71 -25 -145 -7 -46 -15 -95 -20 -120 -7 -36
-16 -91 -20 -120 -2 -14 -6 -40 -9 -57 -16 -91 -25 -140 -31 -183 -1 -14 -6
-41 -9 -60 -11 -60 -17 -94 -22 -125 -2 -16 -6 -41 -9 -55 -3 -14 -8 -41 -11
-60 -4 -19 -8 -44 -11 -55 -2 -11 -6 -39 -8 -62 -2 -24 -7 -47 -10 -53 -3 -5
-8 -24 -10 -42 -2 -18 -6 -42 -8 -53 -3 -11 -12 -65 -22 -120 -9 -55 -20 -118
-25 -140 -5 -22 -11 -55 -14 -72 -10 -55 -16 -87 -21 -113 -3 -14 -7 -41 -10
-60 -2 -19 -9 -49 -14 -67 -5 -17 -7 -34 -4 -37 3 -2 1 -10 -3 -17 -4 -7 -9
-25 -10 -39 -2 -14 -6 -36 -10 -50 -4 -14 -8 -34 -9 -45 -1 -16 -21 -121 -50
-265 -2 -8 -4 -15 -6 -15 -2 0 -6 -25 -10 -67 -2 -16 -6 -28 -10 -28 -3 0 -5
-10 -4 -23 1 -12 -2 -28 -8 -35 -5 -6 -7 -12 -4 -12 3 0 0 -19 -5 -43 -5 -23
-11 -50 -14 -61 -20 -101 -81 -240 -141 -323 -42 -59 -217 -213 -242 -213 -5
0 -11 -4 -13 -8 -7 -18 -203 -97 -268 -108 -14 -3 -32 -7 -40 -11 -8 -3 -26
-7 -40 -8 -23 -2 -42 -6 -120 -20 -29 -5 -133 -16 -205 -21 -75 -5 -432 -4
-500 1 -144 11 -370 39 -370 45 0 1 -11 3 -25 5 -70 8 -119 15 -132 20 -13 5
-19 -15 -22 -82 -1 -13 -5 -23 -9 -23 -5 0 -6 -3 -3 -8 2 -4 1 -28 -4 -52 -5
-25 -11 -65 -15 -90 -3 -25 -8 -52 -10 -60 -3 -13 -8 -39 -20 -115 -1 -11 -6
-42 -10 -70 -4 -27 -9 -57 -10 -67 -2 -9 -7 -38 -11 -65 -5 -26 -9 -50 -9 -53
-1 -3 -5 -28 -9 -55 -4 -28 -9 -62 -11 -75 -3 -14 -7 -40 -9 -57 -11 -70 -26
-159 -30 -178 -2 -11 -7 -42 -10 -68 -4 -27 -10 -59 -12 -70 -3 -12 -6 -38 -9
-57 -5 -47 -15 -101 -21 -122 -6 -21 4 -27 57 -33 24 -3 51 -7 59 -10 8 -2 34
-7 57 -10 23 -3 55 -8 70 -10 38 -5 180 -25 223 -31 20 -2 47 -7 60 -9 14 -3
54 -7 90 -10 36 -3 90 -8 120 -11 30 -3 80 -7 110 -8 30 -2 55 -5 55 -6 0 -11
502 -16 695 -6 152 7 325 21 325 25 0 1 27 4 60 7 54 4 100 10 100 14 0 1 16
3 35 5 19 2 51 7 70 10 19 4 45 9 57 10 12 2 26 5 30 8 5 3 28 8 51 12 64 9
305 82 382 114 38 16 71 27 74 24 3 -4 6 -1 6 6 0 7 5 9 10 6 6 -3 10 -1 10 6
0 7 3 10 6 7 6 -7 181 82 226 113 14 11 29 19 32 19 3 0 50 29 104 65 126 84
146 98 150 108 2 4 10 7 18 7 8 0 14 4 14 8 0 4 21 24 48 44 78 60 200 185
267 273 20 28 40 52 44 55 13 9 133 222 136 240 0 3 11 27 23 54 12 27 22 52
22 56 0 4 7 21 16 39 9 17 17 37 18 44 2 7 6 19 9 27 9 24 68 208 71 222 2 7
9 33 16 58 8 25 15 52 17 60 1 8 18 78 37 156 19 77 37 151 40 165 3 13 7 34
10 45 2 12 7 37 10 55 5 32 9 49 21 101 5 21 11 57 19 118 2 14 6 34 9 45 3
11 8 36 11 55 3 19 8 46 10 60 3 14 7 43 11 65 3 22 12 76 20 120 8 44 17 98
20 119 3 21 7 48 10 60 2 12 7 37 10 56 2 19 7 49 11 65 3 17 7 46 9 65 2 19
5 36 6 38 2 3 4 13 13 65 4 27 9 56 11 65 1 10 6 37 9 62 3 25 8 56 11 70 3
14 8 42 11 63 7 48 12 72 14 72 2 0 6 23 14 85 3 25 8 59 12 75 3 17 8 41 9
55 2 14 4 25 5 25 1 0 3 16 5 35 2 19 6 46 9 60 7 37 25 139 31 185 4 22 8 47
10 55 2 8 7 33 10 55 3 23 8 52 10 65 3 14 8 41 11 60 3 19 8 46 10 60 3 14 7
41 9 60 2 19 6 46 9 60 4 14 10 52 15 85 8 50 25 151 55 325 3 14 5 27 6 30 2
3 2 8 1 12 0 4 4 31 9 60 6 29 13 76 16 103 4 28 9 54 12 60 3 5 7 21 7 35 1
14 5 39 8 55 4 17 9 48 12 70 3 23 7 52 10 65 17 86 24 132 23 138 -1 4 2 18
5 32 4 14 9 41 12 60 2 19 7 46 10 60 2 13 7 42 10 65 3 22 8 52 11 67 3 15 7
41 9 59 3 18 11 69 19 114 8 44 17 94 20 110 2 17 12 75 21 130 9 55 18 114
20 132 2 18 6 40 9 50 2 10 7 34 10 53 3 19 8 46 10 60 3 14 15 81 26 150 12
69 23 136 25 150 2 14 7 42 10 64 4 21 8 46 10 55 4 22 16 96 20 124 2 12 6
33 8 47 3 14 11 59 17 100 7 41 14 82 15 92 2 9 7 38 11 65 3 26 8 57 10 68 3
11 7 36 9 55 3 19 8 46 12 60 3 14 7 34 8 45 2 11 6 38 10 60 7 43 14 88 19
120 2 11 6 39 10 63 4 23 9 52 11 65 2 12 6 39 10 60 6 34 4 37 -17 37 -282 3
-1685 4 -1714 2z"/>
</g>
</svg>
